<svg width="979" height="917" viewBox="0 0 979 917" fill="none" xmlns="http://www.w3.org/2000/svg">
<g opacity="0.7">
<path d="M831.953 7.98297H659.892V211.941H831.953V7.98297Z" fill="#F4F4F4"/>
<path d="M831.953 211.941H837.535V7.98293H831.953V211.941Z" fill="#F4F4F4"/>
<path opacity="0.05" d="M831.953 211.941H837.535V7.98293H831.953V211.941Z" fill="#292A2E"/>
<path opacity="0.05" d="M800.61 48.78H691.235V171.145H800.61V48.78Z" fill="#292A2E"/>
<path opacity="0.03" d="M800.61 48.78H794.91V171.145H800.61V48.78Z" fill="#292A2E"/>
<path d="M972.671 267.016H831.953V409.026H972.671V267.016Z" fill="#F4F4F4"/>
<path opacity="0.05" d="M947.038 292.885H857.587V383.157H947.038V292.885Z" fill="#292A2E"/>
<path d="M972.671 409.026H978.253V267.016H972.671V409.026Z" fill="#F4F4F4"/>
<path opacity="0.05" d="M972.671 409.026H978.253V267.016H972.671V409.026Z" fill="#292A2E"/>
<path opacity="0.03" d="M947.037 292.885H941.337V383.157H947.037V292.885Z" fill="#292A2E"/>
</g>
<g opacity="0.7">
<path d="M479.654 0H74.5735V405.081H479.654V0Z" fill="#F4F4F4"/>
<path d="M74.5737 0H69.9307V405.081H74.5737V0Z" fill="#F4F4F4"/>
<path opacity="0.05" d="M74.5737 0H69.9307V405.081H74.5737V0Z" fill="#292A2E"/>
<path opacity="0.05" d="M172.707 279.134V173.152H259.522V234.725H393.999V343.749H451.154V405.081H393.999H382.989H94.0596V279.134H172.707Z" fill="#292A2E"/>
<path opacity="0.34" d="M248.379 184.659H185.159V196.166H248.379V184.659Z" fill="#FFFFFA"/>
<path opacity="0.34" d="M248.379 208.505H185.159V220.012H248.379V208.505Z" fill="#FFFFFA"/>
<path opacity="0.34" d="M248.379 232.35H185.159V243.857H248.379V232.35Z" fill="#FFFFFA"/>
<path opacity="0.34" d="M116.923 290.304H105.271V301.811H116.923V290.304Z" fill="#FFFFFA"/>
<path opacity="0.34" d="M116.923 314.15H105.271V325.657H116.923V314.15Z" fill="#FFFFFA"/>
<path opacity="0.34" d="M116.923 337.995H105.271V349.502H116.923V337.995Z" fill="#FFFFFA"/>
<path opacity="0.34" d="M138.479 290.304H126.827V301.811H138.479V290.304Z" fill="#FFFFFA"/>
<path opacity="0.34" d="M138.479 314.15H126.827V325.657H138.479V314.15Z" fill="#FFFFFA"/>
<path opacity="0.34" d="M138.479 337.995H126.827V349.502H138.479V337.995Z" fill="#FFFFFA"/>
<path opacity="0.34" d="M159.454 290.304H147.802V301.811H159.454V290.304Z" fill="#FFFFFA"/>
<path opacity="0.34" d="M159.454 314.15H147.802V325.657H159.454V314.15Z" fill="#FFFFFA"/>
<path opacity="0.34" d="M159.454 337.995H147.802V349.502H159.454V337.995Z" fill="#FFFFFA"/>
<path d="M74.5735 200.268H156.082V0H162.823V200.268H382.988V0H389.729V200.268H479.654V207.009H389.729V405.081H382.988V207.009H162.823V405.081H156.082V207.009H74.5735V200.268Z" fill="white"/>
<path d="M495.792 404.592H58.4365V418.063H495.792V404.592Z" fill="#F4F4F4"/>
<path opacity="0.1" d="M495.792 404.592H58.4365V418.063H495.792V404.592Z" fill="#292A2E"/>
<path opacity="0.1" d="M58.4366 404.592H52.1226V418.063H58.4366V404.592Z" fill="#292A2E"/>
<path opacity="0.1" d="M58.4366 404.592H52.1226V418.063H58.4366V404.592Z" fill="#292A2E"/>
</g>
<path d="M308.368 50.3H782.505C789.335 50.3 795.885 53.0131 800.714 57.8426C805.544 62.672 808.257 69.2221 808.257 76.052V643.932C808.257 650.91 805.485 657.603 800.55 662.537C795.616 667.472 788.923 670.244 781.945 670.244H308.929C301.95 670.244 295.258 667.472 290.323 662.537C285.389 657.603 282.617 650.91 282.617 643.932V76.049C282.617 69.2198 285.331 62.6706 290.16 57.8419C294.989 53.0131 301.539 50.3003 308.368 50.3Z" fill="white"/>
<path d="M781.945 671.243H308.929C301.685 671.243 294.738 668.366 289.616 663.244C284.494 658.122 281.617 651.175 281.617 643.931V75.049C281.617 68.2197 284.331 61.6704 289.16 56.8416C293.989 52.0128 300.538 49.3 307.368 49.3H783.505C790.334 49.3 796.884 52.013 801.714 56.8422C806.543 61.6714 809.256 68.2213 809.257 75.051V643.931C809.257 651.175 806.379 658.122 801.257 663.244C796.135 668.366 789.188 671.243 781.945 671.243ZM283.617 76.006V643.931C283.617 647.255 284.271 650.547 285.543 653.618C286.815 656.689 288.68 659.479 291.03 661.83C293.381 664.18 296.171 666.045 299.242 667.317C302.313 668.589 305.605 669.243 308.929 669.243H781.945C788.658 669.243 795.096 666.576 799.843 661.829C804.59 657.082 807.257 650.644 807.257 643.931V75.756C807.256 72.544 806.623 69.3635 805.394 66.3962C804.164 63.4288 802.362 60.7327 800.091 58.4617C797.819 56.1908 795.123 54.3895 792.155 53.1607C789.187 51.9319 786.007 51.2996 782.795 51.3H308.325C301.772 51.3 295.488 53.9029 290.854 58.5361C286.221 63.1693 283.617 69.4534 283.617 76.006Z" fill="#292A2E"/>
<path d="M384.583 173.577H327.124C323.922 173.573 320.852 172.3 318.587 170.036C316.323 167.772 315.049 164.702 315.045 161.5V104.04C315.048 100.838 316.322 97.7673 318.587 95.5029C320.851 93.2384 323.921 91.9646 327.124 91.9609H384.583C387.785 91.9644 390.856 93.2381 393.12 95.5025C395.385 97.767 396.659 100.837 396.663 104.04V161.5C396.658 164.702 395.384 167.772 393.12 170.036C390.855 172.3 387.785 173.573 384.583 173.577ZM327.124 93.9589C324.452 93.9621 321.89 95.025 320 96.9145C318.111 98.804 317.048 101.366 317.045 104.038V161.5C317.048 164.172 318.111 166.734 320 168.623C321.89 170.513 324.452 171.576 327.124 171.579H384.583C387.255 171.576 389.817 170.513 391.707 168.624C393.596 166.734 394.66 164.172 394.663 161.5V104.04C394.66 101.368 393.596 98.8057 391.707 96.9162C389.817 95.0266 387.255 93.9638 384.583 93.9609L327.124 93.9589Z" fill="#292A2E"/>
<path d="M384.583 287.415H327.124C323.921 287.411 320.851 286.137 318.587 283.873C316.322 281.609 315.048 278.538 315.045 275.336V217.877C315.048 214.674 316.322 211.604 318.586 209.339C320.851 207.075 323.921 205.801 327.124 205.797H384.583C387.785 205.801 390.856 207.075 393.12 209.339C395.385 211.604 396.659 214.674 396.663 217.877V275.336C396.659 278.539 395.385 281.609 393.12 283.873C390.856 286.138 387.785 287.412 384.583 287.415ZM327.124 207.8C324.451 207.803 321.889 208.866 320 210.756C318.11 212.646 317.048 215.208 317.045 217.88V275.339C317.048 278.011 318.11 280.573 320 282.463C321.89 284.352 324.451 285.415 327.124 285.418H384.583C387.255 285.415 389.817 284.352 391.707 282.463C393.596 280.573 394.66 278.011 394.663 275.339V217.877C394.66 215.205 393.596 212.643 391.707 210.753C389.817 208.863 387.255 207.8 384.583 207.797L327.124 207.8Z" fill="#292A2E"/>
<path d="M384.583 401.253H327.124C323.921 401.249 320.851 399.976 318.587 397.711C316.322 395.447 315.048 392.376 315.045 389.174V331.715C315.048 328.513 316.322 325.442 318.587 323.178C320.851 320.913 323.921 319.64 327.124 319.636H384.583C387.785 319.639 390.856 320.913 393.12 323.178C395.385 325.442 396.659 328.512 396.663 331.715V389.174C396.659 392.377 395.385 395.447 393.12 397.711C390.856 399.976 387.785 401.25 384.583 401.253ZM327.124 321.636C324.451 321.639 321.89 322.702 320 324.591C318.11 326.481 317.048 329.043 317.045 331.715V389.174C317.048 391.846 318.11 394.408 320 396.298C321.89 398.187 324.451 399.25 327.124 399.253H384.583C387.255 399.25 389.817 398.187 391.707 396.298C393.596 394.408 394.66 391.846 394.663 389.174V331.715C394.66 329.043 393.596 326.481 391.707 324.591C389.817 322.702 387.255 321.639 384.583 321.636H327.124Z" fill="#292A2E"/>
<path d="M384.583 513.527H327.124C323.921 513.523 320.851 512.249 318.587 509.985C316.322 507.721 315.048 504.65 315.045 501.448V443.989C315.048 440.786 316.322 437.716 318.586 435.451C320.851 433.187 323.921 431.913 327.124 431.909H384.583C387.785 431.913 390.856 433.187 393.12 435.451C395.385 437.716 396.659 440.786 396.663 443.989V501.448C396.659 504.651 395.385 507.721 393.12 509.985C390.856 512.25 387.785 513.523 384.583 513.527ZM327.124 433.909C324.451 433.912 321.889 434.975 320 436.865C318.11 438.754 317.047 441.317 317.045 443.989V501.448C317.048 504.12 318.111 506.682 320 508.571C321.89 510.461 324.452 511.524 327.124 511.527H384.583C387.255 511.524 389.817 510.461 391.707 508.572C393.596 506.682 394.66 504.12 394.663 501.448V443.989C394.66 441.316 393.597 438.754 391.707 436.865C389.817 434.975 387.255 433.912 384.583 433.909H327.124Z" fill="#292A2E"/>
<path d="M384.583 625.8H327.124C323.921 625.796 320.851 624.522 318.586 622.258C316.322 619.993 315.048 616.923 315.045 613.72V556.262C315.048 553.059 316.322 549.989 318.586 547.724C320.851 545.46 323.921 544.186 327.124 544.182H384.583C387.785 544.186 390.856 545.46 393.12 547.724C395.385 549.989 396.659 553.059 396.663 556.262V613.721C396.659 616.924 395.385 619.994 393.12 622.258C390.855 624.523 387.785 625.796 384.583 625.8ZM327.124 546.181C324.451 546.184 321.889 547.247 320 549.137C318.11 551.027 317.048 553.589 317.045 556.261V613.72C317.048 616.392 318.11 618.954 320 620.844C321.889 622.734 324.451 623.797 327.124 623.8H384.583C387.255 623.797 389.817 622.734 391.707 620.844C393.596 618.954 394.66 616.392 394.663 613.72V556.262C394.66 553.59 393.596 551.028 391.707 549.138C389.817 547.248 387.255 546.185 384.583 546.182L327.124 546.181Z" fill="#292A2E"/>
<path d="M345.633 269.594C344.599 269.595 343.605 269.194 342.861 268.477L326.113 252.377C325.734 252.013 325.431 251.578 325.22 251.097C325.009 250.615 324.896 250.097 324.885 249.572C324.875 249.047 324.968 248.525 325.159 248.036C325.351 247.546 325.637 247.1 326.001 246.721C326.365 246.342 326.8 246.039 327.281 245.828C327.762 245.618 328.28 245.504 328.806 245.494C329.331 245.483 329.853 245.576 330.342 245.768C330.831 245.959 331.278 246.245 331.657 246.609L345.565 259.98L380.426 224.8C381.175 224.059 382.186 223.643 383.24 223.644C384.294 223.644 385.305 224.06 386.054 224.802C386.802 225.544 387.228 226.551 387.238 227.605C387.249 228.659 386.843 229.674 386.109 230.43L348.474 268.405C348.103 268.782 347.66 269.081 347.173 269.285C346.685 269.489 346.161 269.594 345.633 269.594Z" fill="#0CBC8B"/>
<path d="M345.633 383.432C344.599 383.433 343.605 383.033 342.861 382.316L326.113 366.216C325.348 365.481 324.906 364.472 324.885 363.411C324.864 362.35 325.266 361.325 326.001 360.56C326.736 359.795 327.745 359.354 328.806 359.333C329.866 359.312 330.892 359.713 331.657 360.448L345.565 373.815L380.426 338.638C381.172 337.884 382.188 337.458 383.249 337.453C384.31 337.449 385.329 337.865 386.083 338.612C386.836 339.359 387.262 340.374 387.267 341.435C387.272 342.496 386.855 343.515 386.109 344.269L348.474 382.244C348.103 382.621 347.66 382.919 347.173 383.123C346.685 383.327 346.161 383.432 345.633 383.432Z" fill="#0CBC8B"/>
<path opacity="0.5" d="M765.055 114.977H428.067C426.525 114.977 425.276 116.227 425.276 117.768C425.276 119.309 426.525 120.559 428.067 120.559H765.055C766.596 120.559 767.846 119.309 767.846 117.768C767.846 116.227 766.596 114.977 765.055 114.977Z" fill="#262626"/>
<path opacity="0.5" d="M645.055 144.977H428.067C426.525 144.977 425.276 146.227 425.276 147.768C425.276 149.309 426.525 150.559 428.067 150.559H645.055C646.596 150.559 647.846 149.309 647.846 147.768C647.846 146.227 646.596 144.977 645.055 144.977Z" fill="#262626"/>
<path opacity="0.5" d="M765.055 228.815H428.067C426.525 228.815 425.276 230.065 425.276 231.606C425.276 233.147 426.525 234.397 428.067 234.397H765.055C766.596 234.397 767.846 233.147 767.846 231.606C767.846 230.065 766.596 228.815 765.055 228.815Z" fill="#262626"/>
<path opacity="0.5" d="M645.055 258.815H428.067C426.525 258.815 425.276 260.064 425.276 261.606C425.276 263.147 426.525 264.397 428.067 264.397H645.055C646.596 264.397 647.846 263.147 647.846 261.606C647.846 260.064 646.596 258.815 645.055 258.815Z" fill="#262626"/>
<path opacity="0.5" d="M765.055 342.653H428.067C426.525 342.653 425.276 343.903 425.276 345.444C425.276 346.985 426.525 348.235 428.067 348.235H765.055C766.596 348.235 767.846 346.985 767.846 345.444C767.846 343.903 766.596 342.653 765.055 342.653Z" fill="#262626"/>
<path opacity="0.5" d="M645.055 372.653H428.067C426.525 372.653 425.276 373.903 425.276 375.444C425.276 376.985 426.525 378.235 428.067 378.235H645.055C646.596 378.235 647.846 376.985 647.846 375.444C647.846 373.903 646.596 372.653 645.055 372.653Z" fill="#262626"/>
<path opacity="0.5" d="M765.055 454.927H428.067C426.525 454.927 425.276 456.177 425.276 457.718C425.276 459.259 426.525 460.509 428.067 460.509H765.055C766.596 460.509 767.846 459.259 767.846 457.718C767.846 456.177 766.596 454.927 765.055 454.927Z" fill="#262626"/>
<path opacity="0.5" d="M645.055 484.927H428.067C426.525 484.927 425.276 486.177 425.276 487.718C425.276 489.259 426.525 490.509 428.067 490.509H645.055C646.596 490.509 647.846 489.259 647.846 487.718C647.846 486.177 646.596 484.927 645.055 484.927Z" fill="#262626"/>
<path opacity="0.5" d="M765.055 567.2H428.067C426.525 567.2 425.276 568.45 425.276 569.991C425.276 571.532 426.525 572.782 428.067 572.782H765.055C766.596 572.782 767.846 571.532 767.846 569.991C767.846 568.45 766.596 567.2 765.055 567.2Z" fill="#262626"/>
<path opacity="0.5" d="M645.055 597.2H428.067C426.525 597.2 425.276 598.45 425.276 599.991C425.276 601.532 426.525 602.782 428.067 602.782H645.055C646.596 602.782 647.846 601.532 647.846 599.991C647.846 598.45 646.596 597.2 645.055 597.2Z" fill="#262626"/>
<path d="M342.747 153.226C343.038 152.51 343.555 151.908 344.22 151.513C344.885 151.118 345.661 150.951 346.43 151.037C346.43 150.975 346.376 150.825 346.484 150.826L343.984 149.246C343.236 148.796 342.677 148.091 342.409 147.261C342.141 146.431 342.182 145.532 342.526 144.73C342.89 143.949 343.532 143.331 344.327 142.996C345.121 142.661 346.012 142.634 346.826 142.919C346.818 142.885 346.839 142.851 346.842 142.819L345.814 142.17C345.111 141.743 344.577 141.087 344.303 140.312C344.028 139.538 344.03 138.692 344.308 137.918C344.492 137.437 344.781 137.002 345.153 136.646C345.526 136.29 345.973 136.021 346.462 135.858C346.951 135.696 347.47 135.643 347.982 135.706C348.493 135.768 348.985 135.943 349.421 136.218L351.795 137.718C351.801 137.704 351.795 137.689 351.801 137.676C351.807 137.663 351.834 137.657 351.846 137.642C351.288 137.084 350.937 136.354 350.849 135.57C350.762 134.786 350.943 133.996 351.363 133.329C352.337 131.536 354.839 131.744 356.374 132.713L360.974 136.142C361.683 136.671 362.25 137.367 362.626 138.169C363.001 138.97 363.172 139.852 363.124 140.736C362.715 148.384 361.168 168.336 356.269 165.236L344.21 157.622C343.511 157.156 342.988 156.471 342.723 155.675C342.458 154.879 342.467 154.017 342.747 153.226Z" fill="#E98862"/>
<path d="M345.633 154.616C344.599 154.617 343.605 154.216 342.861 153.499L326.113 137.399C325.728 137.036 325.419 136.601 325.204 136.118C324.989 135.636 324.871 135.115 324.858 134.587C324.845 134.059 324.937 133.533 325.129 133.04C325.32 132.548 325.607 132.098 325.974 131.717C326.34 131.336 326.778 131.031 327.263 130.821C327.747 130.61 328.269 130.497 328.797 130.49C329.326 130.482 329.851 130.579 330.341 130.775C330.832 130.971 331.279 131.262 331.657 131.632L345.565 145L380.426 109.823C380.795 109.45 381.235 109.153 381.719 108.95C382.204 108.747 382.723 108.641 383.249 108.638C383.774 108.636 384.295 108.737 384.781 108.936C385.267 109.135 385.709 109.427 386.083 109.797C386.456 110.167 386.752 110.606 386.956 111.091C387.159 111.575 387.265 112.095 387.267 112.62C387.27 113.145 387.169 113.666 386.97 114.152C386.771 114.638 386.478 115.081 386.109 115.454L348.474 153.429C348.102 153.805 347.66 154.104 347.172 154.308C346.685 154.512 346.161 154.616 345.633 154.616Z" fill="#0CBC8B"/>
<path d="M334.108 144.852C334.192 144.269 334.393 143.71 334.7 143.208C335.008 142.706 335.414 142.272 335.894 141.932C336.375 141.592 336.92 141.354 337.495 141.232C338.071 141.11 338.665 141.106 339.243 141.221C340.352 141.483 341.32 142.156 341.952 143.104C342.584 144.052 342.833 145.205 342.649 146.329L342.529 152.47C342.503 153.769 342.954 155.032 343.796 156.022C344.638 157.011 345.813 157.658 347.1 157.84C348.36 158.019 349.643 157.739 350.716 157.053C351.788 156.366 352.578 155.317 352.943 154.097L356.076 143.614L352.669 138.527C353.861 136.607 354.861 131.642 356.926 133.121C358.673 134.207 362.64 136.833 363.726 139.321C363.747 139.331 365.778 160.678 364.673 162.458L354.895 188.614C350.204 196.166 327.566 190.322 327.566 190.322L334.108 144.852Z" fill="#E98862"/>
<path d="M345.564 145L380.425 109.823C380.795 109.45 381.235 109.153 381.719 108.95C382.204 108.747 382.723 108.641 383.249 108.638C383.774 108.636 384.294 108.737 384.781 108.936C385.267 109.135 385.709 109.427 386.082 109.797C386.456 110.167 386.752 110.606 386.956 111.091C387.159 111.575 387.265 112.095 387.267 112.62C387.269 113.145 387.168 113.666 386.97 114.152C386.771 114.638 386.478 115.081 386.108 115.454L348.473 153.429" fill="#0CBC8B"/>
<path d="M167.643 326.809L308.73 314.936C319.118 315.209 328.163 306.572 331.973 296.88L368.937 181.022L320.583 162.014L287.954 261.257L163.873 269.941L167.643 326.809Z" fill="#367CFF"/>
<path d="M85.7228 872.3C85.7228 872.3 90.2378 895.7 112.151 897.008C134.064 898.316 129.312 915.769 129.312 915.769H45.5728V873.931L85.7228 872.3Z" fill="#367CFF"/>
<path d="M59.8947 445.368C59.8947 445.368 60.1577 438.333 60.1017 454.292C59.8947 513.821 58.8617 581.817 56.3377 621.607C52.2807 685.571 41.8777 887.235 41.8777 887.235L96.9037 886.773L150.236 442.95L59.8947 445.368Z" fill="#262626"/>
<path d="M122.034 515.567C122.034 515.567 124.314 558.767 124.734 568.908C125.712 592.363 126.052 616.647 126.052 644.181L134.728 572C134.728 572 128.381 549.38 122.034 515.567Z" fill="#0A0A0A"/>
<path d="M183.684 872.3C183.684 872.3 188.199 895.7 210.112 897.008C232.025 898.316 227.273 915.769 227.273 915.769H143.534V873.931L183.684 872.3Z" fill="#367CFF"/>
<path d="M210.327 449.991C210.327 449.991 215.201 653.447 214.487 663.391L194.024 885.691L139.907 886.691L145.181 655.348C145.181 655.348 141.461 591.532 126.042 532.274C118.153 501.861 113.405 470.719 111.873 439.337L210.327 449.991Z" fill="#262626"/>
<path d="M59.2947 445.362L59.1147 445.372C59.1147 445.372 59.2457 441.9 59.2947 445.362Z" fill="#333333"/>
<path d="M218.073 343.06C216.939 356.392 211.418 433.569 210.327 449.991H59.9547C59.1057 435.18 55.2908 370.415 52.0698 341.452C48.9948 313.814 42.9618 299.977 47.3838 291.806C54.6098 278.452 74.3557 270.736 87.8197 268.913C96.0417 267.8 166.136 267 166.304 267C171.81 267 203.87 269.588 210.957 275.046C223.78 284.922 220.055 319.811 218.073 343.06Z" fill="#367CFF"/>
<path d="M220.15 322.783C220.277 322.783 220.4 322.734 220.493 322.647C220.586 322.559 220.642 322.439 220.65 322.312L221.863 303.141C221.87 303.009 221.825 302.879 221.737 302.78C221.649 302.681 221.525 302.621 221.393 302.613C221.261 302.607 221.132 302.653 221.033 302.74C220.934 302.828 220.874 302.951 220.865 303.083L219.652 322.254C219.644 322.386 219.689 322.516 219.777 322.615C219.866 322.714 219.989 322.774 220.122 322.782L220.15 322.783Z" fill="#0C0C0C"/>
<path d="M27.4446 449.119C23.0223 449.117 18.6658 448.048 14.7458 446.001C10.8258 443.954 7.45836 440.99 4.92993 437.362C2.40149 433.734 0.786939 429.548 0.223638 425.162C-0.339663 420.776 0.164963 416.318 1.69458 412.169C3.24358 407.956 39.6636 311.513 46.5946 293.643L97.9336 314.443C94.0336 324.49 79.9106 362.574 68.5626 393.254L87.4146 391.205L93.3486 445.79L30.4136 448.957C29.4276 449.064 28.4364 449.119 27.4446 449.119Z" fill="#367CFF"/>
<path d="M184.219 265.176C184.051 265.154 179.438 282.512 143.441 279.81C118.521 277.943 112.441 260.981 111.873 260.981C114.56 260.41 118.924 259.817 120.117 259.181C124.041 257.072 126.9 254.506 128.338 248.997C129.463 244.69 130.038 228.107 130.038 219.787L168.385 228.404C167.85 237.789 164.109 259.547 177.221 263.398C179.402 264.034 181.752 264.619 184.219 265.176Z" fill="#E98862"/>
<path d="M167.057 246.854C151.94 248.047 132.52 241.664 128.831 221.495L125.503 203.295C121.814 183.126 129.417 164.838 148.408 161.365C167.398 157.892 184.583 171.647 188.271 191.816L189.745 199.873C191.16 207.613 194.029 244.726 167.057 246.854Z" fill="#E98862"/>
<path d="M181.074 228.336C178.361 214.702 177.116 205.605 177.261 196.009C181.083 189.309 180.078 181.609 179.209 178.285C181.841 179.957 184.936 180.75 188.048 180.551C188.048 180.551 181.727 155.183 160.243 148.357C156.292 146.82 146.205 144.878 132.812 146.715C121.421 148.277 93.3405 156.794 89.3285 188.407V188.425C89.1965 189.474 86.5005 218.601 81.1285 232.576C73.9035 251.362 63.7585 257.199 64.0155 278.876C64.3465 306.757 115.604 310.469 146.516 308.383C177.428 306.297 194.69 296.132 194.916 276.039C195.162 253.524 186.504 255.615 181.074 228.336Z" fill="#0A0A0A"/>
<path d="M56.7531 342.009L55.7537 342.043L59.4484 450.008L60.4478 449.973L56.7531 342.009Z" fill="#0C0C0C"/>
<path d="M955.486 916.47H15.0667C14.881 916.47 14.703 916.396 14.5717 916.265C14.4404 916.134 14.3667 915.956 14.3667 915.77C14.3667 915.584 14.4404 915.406 14.5717 915.275C14.703 915.144 14.881 915.07 15.0667 915.07H955.486C955.671 915.07 955.849 915.144 955.981 915.275C956.112 915.406 956.186 915.584 956.186 915.77C956.186 915.956 956.112 916.134 955.981 916.265C955.849 916.396 955.671 916.47 955.486 916.47Z" fill="#292A2E"/>
<path d="M858.416 785.415C858.15 785.415 857.896 785.31 857.709 785.122C856.3 783.713 854.004 757.863 847.818 680.898C845.287 649.406 842.895 619.661 841.151 601.583C841.026 600.292 840.526 600.142 840.361 600.093C837.973 599.372 830.709 605.1 826.654 610.115C826.571 610.217 826.469 610.302 826.354 610.365C826.238 610.427 826.112 610.467 825.981 610.481C825.85 610.494 825.718 610.482 825.592 610.445C825.467 610.408 825.349 610.346 825.247 610.264C825.145 610.181 825.06 610.079 824.997 609.964C824.935 609.848 824.895 609.722 824.882 609.591C824.868 609.46 824.88 609.328 824.917 609.202C824.954 609.077 825.016 608.959 825.099 608.857C827.781 605.541 836.52 596.848 840.936 598.177C841.827 598.445 842.936 599.219 843.142 601.391C844.888 619.484 847.279 649.238 849.811 680.738C853.571 727.508 857.829 780.494 859.228 783.831C859.335 783.98 859.399 784.157 859.413 784.34C859.427 784.524 859.39 784.707 859.306 784.871C859.222 785.035 859.094 785.173 858.937 785.268C858.78 785.364 858.6 785.415 858.416 785.415Z" fill="#494949"/>
<path d="M838.581 634.755C855.175 621.453 860.674 600.75 850.865 588.513C841.056 576.275 819.652 577.137 803.058 590.439C786.464 603.74 780.964 624.443 790.774 636.681C800.583 648.918 821.987 648.056 838.581 634.755Z" fill="#0CBC8B"/>
<path opacity="0.2" d="M838.581 634.755C855.175 621.453 860.674 600.75 850.865 588.513C841.056 576.275 819.652 577.137 803.058 590.439C786.464 603.74 780.964 624.443 790.774 636.681C800.583 648.918 821.987 648.056 838.581 634.755Z" fill="white"/>
<path d="M795.426 639.793C795.331 639.793 795.238 639.766 795.158 639.715C795.078 639.664 795.014 639.591 794.974 639.505C794.934 639.419 794.919 639.324 794.931 639.23C794.943 639.136 794.981 639.047 795.041 638.974L842.333 581.945C842.374 581.893 842.425 581.85 842.484 581.818C842.542 581.787 842.606 581.767 842.672 581.76C842.738 581.754 842.805 581.76 842.869 581.779C842.932 581.799 842.991 581.831 843.042 581.873C843.093 581.916 843.135 581.968 843.166 582.027C843.197 582.086 843.215 582.15 843.221 582.216C843.226 582.282 843.219 582.349 843.198 582.412C843.178 582.475 843.145 582.534 843.101 582.584L795.81 639.613C795.763 639.669 795.705 639.715 795.638 639.746C795.572 639.777 795.499 639.793 795.426 639.793Z" fill="white"/>
<path d="M868.731 773.189C868.571 773.189 868.414 773.151 868.272 773.077C868.13 773.004 868.008 772.898 867.916 772.768C867.823 772.638 867.763 772.488 867.741 772.33C867.718 772.172 867.734 772.011 867.787 771.86L885.55 720.773C886.073 719.272 886.964 717.926 888.142 716.859C889.32 715.791 890.747 715.037 892.292 714.664C893.837 714.291 895.451 714.311 896.986 714.724C898.521 715.137 899.929 715.928 901.079 717.025L910.47 726C910.661 726.183 910.773 726.435 910.779 726.7C910.785 726.966 910.685 727.222 910.502 727.414C910.318 727.606 910.066 727.717 909.801 727.723C909.536 727.729 909.279 727.629 909.088 727.446L899.697 718.475C898.789 717.609 897.678 716.985 896.466 716.659C895.255 716.334 893.981 716.317 892.761 716.612C891.541 716.906 890.415 717.502 889.485 718.344C888.555 719.186 887.852 720.248 887.439 721.433L869.675 772.517C869.607 772.713 869.479 772.883 869.31 773.004C869.141 773.124 868.938 773.189 868.731 773.189Z" fill="#494949"/>
<path d="M936.709 754.283C949.006 744.549 948.275 723.14 935.076 706.465C921.877 689.789 901.208 684.162 888.911 693.896C876.613 703.63 877.344 725.039 890.543 741.715C903.742 758.39 924.411 764.017 936.709 754.283Z" fill="#0CBC8B"/>
<path d="M850.346 782.157C850.121 782.157 849.903 782.081 849.726 781.942C849.55 781.802 849.426 781.608 849.374 781.389L819.564 656.745C819.36 655.895 818.926 655.118 818.309 654.499C817.693 653.88 816.917 653.443 816.068 653.236C815.219 653.029 814.329 653.061 813.497 653.327C812.665 653.593 811.922 654.084 811.351 654.745L802.162 665.364C801.988 665.565 801.742 665.688 801.477 665.707C801.213 665.726 800.951 665.64 800.751 665.466C800.55 665.292 800.427 665.046 800.407 664.782C800.388 664.517 800.475 664.256 800.649 664.055L809.839 653.436C810.651 652.497 811.707 651.8 812.89 651.422C814.073 651.045 815.337 651 816.544 651.295C817.75 651.589 818.852 652.211 819.728 653.091C820.604 653.971 821.22 655.076 821.509 656.284L851.32 780.928C851.355 781.075 851.356 781.228 851.324 781.376C851.291 781.524 851.226 781.662 851.132 781.781C851.038 781.9 850.919 781.996 850.782 782.061C850.646 782.127 850.497 782.161 850.346 782.161V782.157Z" fill="#494949"/>
<path d="M838.759 693.073C842.375 672.125 832.782 652.982 817.333 650.316C801.885 647.65 786.431 662.47 782.815 683.418C779.2 704.365 788.793 723.508 804.241 726.175C819.69 728.841 835.144 714.021 838.759 693.073Z" fill="#0CBC8B"/>
<path d="M858.418 785.415C858.376 785.415 858.335 785.412 858.294 785.407C858.163 785.391 858.037 785.349 857.923 785.285C857.809 785.22 857.708 785.133 857.628 785.03C857.547 784.926 857.487 784.808 857.452 784.681C857.417 784.555 857.407 784.422 857.424 784.292L876.46 629.735C876.667 628.051 877.356 626.463 878.444 625.162C879.532 623.861 880.973 622.901 882.593 622.399C884.214 621.897 885.945 621.874 887.578 622.332C889.211 622.79 890.678 623.71 891.801 624.982L913.559 649.625C913.734 649.824 913.824 650.084 913.807 650.349C913.791 650.614 913.67 650.862 913.471 651.037C913.272 651.213 913.012 651.303 912.747 651.286C912.482 651.27 912.234 651.149 912.059 650.95L890.301 626.307C889.433 625.324 888.3 624.613 887.037 624.259C885.775 623.904 884.437 623.922 883.185 624.31C881.933 624.698 880.819 625.439 879.978 626.445C879.137 627.451 878.604 628.678 878.444 629.979L859.409 784.537C859.379 784.779 859.262 785.002 859.079 785.163C858.897 785.325 858.661 785.415 858.418 785.415Z" fill="#494949"/>
<path d="M935.875 663.321C943.466 649.597 934.534 630.126 915.925 619.832C897.315 609.539 876.075 612.319 868.484 626.043C860.892 639.768 869.824 659.238 888.434 669.532C907.043 679.826 928.283 677.045 935.875 663.321Z" fill="#0CBC8B"/>
<path opacity="0.2" d="M936.709 754.283C949.006 744.549 948.275 723.14 935.076 706.465C921.877 689.789 901.208 684.162 888.911 693.896C876.613 703.63 877.344 725.039 890.543 741.715C903.742 758.39 924.411 764.017 936.709 754.283Z" fill="white"/>
<path opacity="0.5" d="M838.759 693.073C842.375 672.125 832.782 652.982 817.333 650.316C801.885 647.65 786.431 662.47 782.815 683.418C779.2 704.365 788.793 723.508 804.241 726.175C819.69 728.841 835.144 714.021 838.759 693.073Z" fill="white"/>
<path opacity="0.5" d="M935.875 663.321C943.466 649.597 934.534 630.126 915.925 619.832C897.315 609.539 876.075 612.319 868.484 626.043C860.892 639.768 869.824 659.238 888.434 669.532C907.043 679.826 928.283 677.045 935.875 663.321Z" fill="white"/>
<path d="M882.765 916.556H834.068L825.999 760.752H890.833L882.765 916.556Z" fill="#292A2E"/>
<path opacity="0.3" d="M882.765 916.556H834.068L825.999 760.752H890.833L882.765 916.556Z" fill="white"/>
<path d="M936.71 754.776C936.634 754.776 936.559 754.759 936.491 754.726C936.423 754.693 936.364 754.645 936.317 754.586L888.517 694.2C888.434 694.096 888.397 693.963 888.412 693.832C888.427 693.7 888.495 693.579 888.599 693.497C888.703 693.415 888.835 693.377 888.967 693.392C889.099 693.408 889.219 693.475 889.302 693.579L937.102 753.965C937.16 754.039 937.197 754.127 937.207 754.221C937.217 754.314 937.201 754.409 937.161 754.493C937.12 754.578 937.056 754.649 936.976 754.699C936.897 754.749 936.804 754.776 936.71 754.776Z" fill="white"/>
<path d="M932.695 668.159C932.588 668.158 932.485 668.123 932.401 668.059L871.235 623.4C871.181 623.361 871.137 623.312 871.102 623.256C871.068 623.2 871.045 623.138 871.035 623.073C871.025 623.008 871.028 622.942 871.043 622.878C871.059 622.814 871.087 622.754 871.126 622.701C871.164 622.648 871.213 622.603 871.269 622.569C871.325 622.535 871.388 622.512 871.452 622.502C871.517 622.492 871.584 622.494 871.647 622.51C871.711 622.525 871.772 622.553 871.825 622.592L932.995 667.255C933.078 667.318 933.14 667.406 933.172 667.506C933.203 667.606 933.202 667.714 933.169 667.813C933.136 667.913 933.072 667.999 932.987 668.061C932.902 668.122 932.799 668.155 932.695 668.155V668.159Z" fill="white"/>
<path d="M802.322 725.507C802.278 725.507 802.234 725.501 802.192 725.49C802.064 725.456 801.954 725.372 801.888 725.257C801.821 725.143 801.803 725.006 801.838 724.878L821.31 651.925C821.326 651.861 821.354 651.8 821.394 651.747C821.434 651.694 821.484 651.649 821.541 651.615C821.598 651.582 821.661 651.56 821.727 651.551C821.793 651.542 821.86 651.546 821.924 651.563C821.988 651.58 822.048 651.61 822.1 651.65C822.153 651.691 822.197 651.742 822.23 651.799C822.262 651.857 822.283 651.921 822.291 651.987C822.299 652.052 822.294 652.119 822.276 652.183L802.804 725.136C802.775 725.242 802.713 725.336 802.626 725.403C802.538 725.47 802.432 725.507 802.322 725.507Z" fill="white"/>
</svg>
