<svg width="100" height="100" viewBox="0 0 100 100" fill="none" xmlns="http://www.w3.org/2000/svg">
<circle cx="50" cy="50" r="50" fill="#643FDB"/>
<mask id="path-2-outside-1_381_14089" maskUnits="userSpaceOnUse" x="28" y="28" width="44" height="44" fill="black">
<rect fill="white" x="28" y="28" width="44" height="44"/>
<path d="M41.3344 64.6082C38.5025 62.9752 37.0866 62.1588 36.0212 61.0398C34.8078 59.7654 33.9178 58.2054 33.4291 56.4965C33 54.9961 33 53.3307 33 50C33 46.6693 33 45.0039 33.4291 43.5035C33.9178 41.7946 34.8078 40.2346 36.0212 38.9602C37.0866 37.8412 38.5025 37.0248 41.3344 35.3918L41.6656 35.2009C44.7057 33.4479 46.2258 32.5714 47.8376 32.228C49.2639 31.924 50.7361 31.924 52.1624 32.228C53.7742 32.5714 55.2943 33.4479 58.3344 35.2009L58.6656 35.3918C61.4975 37.0248 62.9134 37.8412 63.9788 38.9602C65.1922 40.2346 66.0822 41.7946 66.5709 43.5035C67 45.0039 67 46.6693 67 50C67 53.3307 67 54.9961 66.5709 56.4965C66.0822 58.2054 65.1922 59.7654 63.9788 61.0398C62.9134 62.1588 61.4975 62.9752 58.6656 64.6082L58.3344 64.7991C55.2943 66.5521 53.7742 67.4286 52.1625 67.772C50.7361 68.076 49.2639 68.076 47.8376 67.772C46.2258 67.4286 44.7057 66.5521 41.6656 64.7991L41.3344 64.6082Z"/>
<path d="M44.6875 50C44.6875 46.9924 47.066 44.5542 50 44.5542C52.934 44.5542 55.3125 46.9924 55.3125 50C55.3125 53.0076 52.934 55.4458 50 55.4458C47.066 55.4458 44.6875 53.0076 44.6875 50Z"/>
</mask>
<path d="M58.3344 64.7991L56.3364 61.3339L56.3364 61.3339L58.3344 64.7991ZM52.1625 67.772L51.3288 63.8599L52.1625 67.772ZM41.6656 64.7991L39.6675 68.2643L39.6675 68.2643L41.6656 64.7991ZM47.8376 67.772L48.6712 63.8599L47.8376 67.772ZM66.5709 56.4965L62.7251 55.3967L66.5709 56.4965ZM58.6656 64.6082L60.6636 68.0734L60.6636 68.0734L58.6656 64.6082ZM63.9788 61.0398L61.0818 58.2816L63.9788 61.0398ZM58.6656 35.3918L60.6636 31.9266L60.6636 31.9266L58.6656 35.3918ZM63.9788 38.9602L61.0818 41.7184L63.9788 38.9602ZM66.5709 43.5035L62.7251 44.6033L66.5709 43.5035ZM41.6656 35.2009L39.6675 31.7357L39.6675 31.7357L41.6656 35.2009ZM47.8376 32.228L48.6712 36.1401L47.8376 32.228ZM58.3344 35.2009L56.3364 38.6661L56.3364 38.6661L58.3344 35.2009ZM52.1624 32.228L51.3288 36.1401L52.1624 32.228ZM33 50H29H33ZM33.4291 43.5035L37.2749 44.6033L33.4291 43.5035ZM41.3344 35.3918L43.3325 38.857V38.857L41.3344 35.3918ZM36.0212 38.9602L33.1242 36.202L36.0212 38.9602ZM33.4291 56.4965L29.5833 57.5964L33.4291 56.4965ZM41.3344 64.6082L43.3325 61.143L43.3325 61.143L41.3344 64.6082ZM36.0212 61.0398L33.1242 63.798H33.1242L36.0212 61.0398ZM43.3325 38.857L43.6636 38.6661L39.6675 31.7357L39.3364 31.9266L43.3325 38.857ZM56.3364 38.6661L56.6675 38.857L60.6636 31.9266L60.3325 31.7357L56.3364 38.6661ZM56.6675 61.143L56.3364 61.3339L60.3325 68.2643L60.6636 68.0734L56.6675 61.143ZM43.6637 61.3339L43.3325 61.143L39.3364 68.0734L39.6675 68.2643L43.6637 61.3339ZM56.3364 61.3339C53.0625 63.2216 52.1763 63.6793 51.3288 63.8599L52.9961 71.6842C55.3722 71.1779 57.5261 69.8825 60.3325 68.2643L56.3364 61.3339ZM39.6675 68.2643C42.4739 69.8825 44.6278 71.1779 47.0039 71.6842L48.6712 63.8599C47.8237 63.6793 46.9375 63.2216 43.6637 61.3339L39.6675 68.2643ZM51.3288 63.8599C50.452 64.0467 49.548 64.0467 48.6712 63.8599L47.0039 71.6842C48.9799 72.1053 51.0201 72.1053 52.9961 71.6842L51.3288 63.8599ZM63 50C63 53.5698 62.9633 54.5636 62.7251 55.3967L70.4167 57.5964C71.0367 55.4285 71 53.0917 71 50H63ZM60.6636 68.0734C63.2848 66.562 65.3178 65.4344 66.8758 63.798L61.0818 58.2816C60.5091 58.8832 59.7102 59.3885 56.6675 61.143L60.6636 68.0734ZM62.7251 55.3967C62.4122 56.4908 61.8449 57.4801 61.0818 58.2816L66.8758 63.798C68.5394 62.0506 69.7522 59.92 70.4167 57.5964L62.7251 55.3967ZM56.6675 38.857C59.7102 40.6115 60.5091 41.1168 61.0818 41.7184L66.8758 36.202C65.3178 34.5656 63.2848 33.438 60.6636 31.9266L56.6675 38.857ZM71 50C71 46.9083 71.0367 44.5715 70.4167 42.4036L62.7251 44.6033C62.9633 45.4364 63 46.4302 63 50H71ZM61.0818 41.7184C61.8449 42.5199 62.4122 43.5092 62.7251 44.6033L70.4167 42.4036C69.7522 40.08 68.5394 37.9494 66.8758 36.202L61.0818 41.7184ZM43.6636 38.6661C46.9375 36.7784 47.8237 36.3207 48.6712 36.1401L47.0039 28.3158C44.6278 28.8221 42.4739 30.1175 39.6675 31.7357L43.6636 38.6661ZM60.3325 31.7357C57.5261 30.1175 55.3722 28.8221 52.9961 28.3158L51.3288 36.1401C52.1763 36.3207 53.0625 36.7784 56.3364 38.6661L60.3325 31.7357ZM48.6712 36.1401C49.548 35.9533 50.452 35.9533 51.3288 36.1401L52.9961 28.3158C51.0201 27.8947 48.9799 27.8947 47.0039 28.3158L48.6712 36.1401ZM37 50C37 46.4302 37.0367 45.4364 37.2749 44.6033L29.5833 42.4036C28.9633 44.5715 29 46.9083 29 50H37ZM39.3364 31.9266C36.7152 33.438 34.6822 34.5656 33.1242 36.202L38.9182 41.7184C39.4909 41.1168 40.2898 40.6115 43.3325 38.857L39.3364 31.9266ZM37.2749 44.6033C37.5878 43.5092 38.1551 42.5199 38.9182 41.7184L33.1242 36.202C31.4606 37.9494 30.2478 40.08 29.5833 42.4036L37.2749 44.6033ZM29 50C29 53.0917 28.9633 55.4285 29.5833 57.5964L37.2749 55.3967C37.0367 54.5636 37 53.5698 37 50H29ZM43.3325 61.143C40.2898 59.3885 39.4909 58.8832 38.9182 58.2816L33.1242 63.798C34.6822 65.4344 36.7152 66.562 39.3364 68.0734L43.3325 61.143ZM29.5833 57.5964C30.2478 59.92 31.4606 62.0506 33.1242 63.798L38.9182 58.2816C38.1551 57.4801 37.5878 56.4908 37.2749 55.3967L29.5833 57.5964ZM50 51.4458C49.368 51.4458 48.6875 50.8925 48.6875 50H40.6875C40.6875 55.1227 44.764 59.4458 50 59.4458V51.4458ZM51.3125 50C51.3125 50.8925 50.632 51.4458 50 51.4458V59.4458C55.236 59.4458 59.3125 55.1227 59.3125 50H51.3125ZM50 48.5542C50.632 48.5542 51.3125 49.1075 51.3125 50H59.3125C59.3125 44.8773 55.236 40.5542 50 40.5542V48.5542ZM50 40.5542C44.764 40.5542 40.6875 44.8773 40.6875 50H48.6875C48.6875 49.1075 49.368 48.5542 50 48.5542V40.5542Z" fill="white" mask="url(#path-2-outside-1_381_14089)"/>
</svg>
