<svg width="112" height="104" viewBox="0 0 112 104" fill="none" xmlns="http://www.w3.org/2000/svg">
<path d="M72.9839 27.5833L90.6013 37.7138V78.0743L55.4809 98.2593L20.3606 78.0743V37.7043L56.8163 16.7502C57.4323 16.3964 57.8819 15.8136 58.0661 15.1298C58.2503 14.4461 58.1542 13.7175 57.7988 13.1044C57.4433 12.4912 56.8577 12.0438 56.1709 11.8604C55.484 11.677 54.752 11.7727 54.136 12.1265L16.3449 33.8591C15.9371 34.0923 15.5981 34.4283 15.362 34.8333C15.1259 35.2383 15.0011 35.698 15 36.1662V79.6124C15.0011 80.0806 15.1259 80.5403 15.362 80.9452C15.5981 81.3502 15.9371 81.6862 16.3449 81.9195L54.1455 103.643C54.553 103.877 55.0152 104 55.4857 104C55.9562 104 56.4184 103.877 56.8258 103.643L94.6551 81.9195C95.0629 81.6862 95.4019 81.3502 95.638 80.9452C95.8741 80.5403 95.9989 80.0806 96 79.6124V36.1662C95.9989 35.698 95.8741 35.2383 95.638 34.8333C95.4019 34.4283 95.0629 34.0923 94.6551 33.8591L75.6641 22.9595C75.0482 22.6058 74.3162 22.51 73.6293 22.6934C72.9424 22.8768 72.3568 23.3243 72.0014 23.9375C71.646 24.5506 71.5498 25.2792 71.7341 25.9629C71.9183 26.6466 72.3679 27.2295 72.9839 27.5833Z" fill="#FFE7CC"/>
<path d="M47.9745 65.6842V40.5242C47.9846 38.5474 48.7812 36.6552 50.19 35.2618C51.5987 33.8685 53.5048 33.0876 55.4908 33.0901C56.4766 33.0901 57.4527 33.2834 58.3634 33.6589C59.2742 34.0344 60.1017 34.5848 60.7988 35.2786C61.4959 35.9725 62.0488 36.7962 62.4261 37.7027C62.8033 38.6093 62.9975 39.5809 62.9975 40.5622V65.7222H67.843V40.5242C67.843 37.2507 66.5365 34.1113 64.2111 31.7966C61.8857 29.4819 58.7317 28.1815 55.4431 28.1815C53.8147 28.1815 52.2022 28.5008 50.6978 29.121C49.1934 29.7413 47.8264 30.6505 46.675 31.7966C45.5236 32.9427 44.6102 34.3034 43.987 35.8009C43.3639 37.2983 43.0432 38.9033 43.0432 40.5242V65.6842H47.8887H47.9745Z" fill="#EFF1F3"/>
<path d="M70.3131 54.9081H40.6582C38.9461 54.9081 37.5582 56.2896 37.5582 57.9937V77.704C37.5582 79.4082 38.9461 80.7897 40.6582 80.7897H70.3131C72.0251 80.7897 73.413 79.4082 73.413 77.704V57.9937C73.413 56.2896 72.0251 54.9081 70.3131 54.9081Z" fill="#FF8A00"/>
<path d="M57.3885 67.1558L58.0276 76.0899H52.9437L53.5827 67.1463C53.2543 66.8736 52.9901 66.5324 52.8088 66.1469C52.6275 65.7613 52.5335 65.3408 52.5335 64.9151C52.5342 64.4227 52.6595 63.9384 52.8976 63.5069C53.1358 63.0753 53.4793 62.7104 53.8964 62.4457C54.3135 62.181 54.7908 62.025 55.2844 61.9922C55.7779 61.9594 56.2719 62.0507 56.7206 62.2579C57.1694 62.465 57.5586 62.7812 57.8523 63.1774C58.1461 63.5735 58.3349 64.0369 58.4014 64.5248C58.468 65.0128 58.4101 65.5095 58.2331 65.9693C58.056 66.429 57.7656 66.8371 57.3885 67.1558Z" fill="#EFF1F3"/>
<path d="M96 20C100.418 20 104 16.4183 104 12C104 7.58172 100.418 4 96 4C91.5817 4 88 7.58172 88 12C88 16.4183 91.5817 20 96 20Z" fill="#FF8A00"/>
<path d="M7.28897 9.30877C9.87613 9.30877 11.9734 7.22493 11.9734 4.65438C11.9734 2.08384 9.87613 0 7.28897 0C4.7018 0 2.60449 2.08384 2.60449 4.65438C2.60449 7.22493 4.7018 9.30877 7.28897 9.30877Z" fill="#FF6A5D"/>
<path d="M105.004 104C107.591 104 109.688 101.916 109.688 99.3456C109.688 96.7751 107.591 94.6912 105.004 94.6912C102.417 94.6912 100.319 96.7751 100.319 99.3456C100.319 101.916 102.417 104 105.004 104Z" fill="#FF6A5D"/>
<path d="M2.32912 21.3359C3.61545 21.3359 4.65823 20.2998 4.65823 19.0217C4.65823 17.7436 3.61545 16.7076 2.32912 16.7076C1.04278 16.7076 0 17.7436 0 19.0217C0 20.2998 1.04278 21.3359 2.32912 21.3359Z" fill="#F4D8E8"/>
<path d="M109.671 89.3521C110.957 89.3521 112 88.316 112 87.0379C112 85.7598 110.957 84.7238 109.671 84.7238C108.385 84.7238 107.342 85.7598 107.342 87.0379C107.342 88.316 108.385 89.3521 109.671 89.3521Z" fill="#F4D8E8"/>
<path d="M6.4611 79.455C6.3741 79.455 6.29066 79.4207 6.22914 79.3595C6.16762 79.2984 6.13306 79.2155 6.13306 79.1291V77.0757C6.13306 76.9892 6.16762 76.9063 6.22914 76.8452C6.29066 76.7841 6.3741 76.7497 6.4611 76.7497C6.5481 76.7497 6.63154 76.7841 6.69306 76.8452C6.75458 76.9063 6.78914 76.9892 6.78914 77.0757V79.1291C6.78914 79.2155 6.75458 79.2984 6.69306 79.3595C6.63154 79.4207 6.5481 79.455 6.4611 79.455Z" fill="#FF6A5D"/>
<path d="M10.5944 81.5019H8.49491C8.40791 81.5019 8.32447 81.4675 8.26295 81.4064C8.20143 81.3453 8.16687 81.2624 8.16687 81.1759C8.16687 81.0895 8.20143 81.0066 8.26295 80.9455C8.32447 80.8844 8.40791 80.85 8.49491 80.85H10.5944C10.6814 80.85 10.7648 80.8844 10.8264 80.9455C10.8879 81.0066 10.9224 81.0895 10.9224 81.1759C10.9224 81.2624 10.8879 81.3453 10.8264 81.4064C10.7648 81.4675 10.6814 81.5019 10.5944 81.5019Z" fill="#FF6A5D"/>
<path d="M6.4611 85.6022C6.3741 85.6022 6.29066 85.5679 6.22914 85.5068C6.16762 85.4456 6.13306 85.3627 6.13306 85.2763V83.2229C6.13306 83.1364 6.16762 83.0535 6.22914 82.9924C6.29066 82.9313 6.3741 82.8969 6.4611 82.8969C6.5481 82.8969 6.63154 82.9313 6.69306 82.9924C6.75458 83.0535 6.78914 83.1364 6.78914 83.2229V85.2763C6.78914 85.3627 6.75458 85.4456 6.69306 85.5068C6.63154 85.5679 6.5481 85.6022 6.4611 85.6022Z" fill="#FF6A5D"/>
<path d="M4.40769 81.5019H2.33445C2.24745 81.5019 2.16401 81.4676 2.10249 81.4064C2.04097 81.3453 2.00641 81.2624 2.00641 81.176C2.00641 81.0895 2.04097 81.0066 2.10249 80.9455C2.16401 80.8844 2.24745 80.85 2.33445 80.85H4.40113C4.48813 80.8492 4.57192 80.8827 4.63405 80.9432C4.69619 81.0037 4.73158 81.0863 4.73245 81.1727C4.73332 81.2591 4.69959 81.3424 4.63869 81.4041C4.57778 81.4659 4.49469 81.501 4.40769 81.5019Z" fill="#FF6A5D"/>
</svg>
